# xmcd
#
# Track frame offsets: 
#        182
#        26270
#        48855
#        78645
#        97820
#        115967
#        138485
#        154942
#        175120
#        194777
#        214312
#        228590
#        244640
#        268065
#        290130
#        307830
#        325445
#
# Disc length: 4611 seconds
#
# Revision: 25
# Processed by: cddbd v1.5.2PL0 Copyright (c) Steve Scherf et al.
# Submitted via: ExactAudioCopy v1.3
#
DISCID=f6120111
DTITLE=B.B. King - Deuces Wild
DYEAR=1997
DGENRE=Blues
TTITLE0=If You Love Me (with Van Morrison)
TTITLE1=The Thrill Is Gone (with Tracy Chapman)
TTITLE2=Rock Me Baby (with Eric Clapton)
TTITLE3=Please Send Me Someone To Love (with Mick Hucknall)
TTITLE4=Baby I Love You (with Bonnie Raitt)
TTITLE5=Ain't Nobody Home (with D'Angelo)
TTITLE6=Pauly's Birthday Boogie (with Jools Holland)
TTITLE7=There Must Be A Better World Somewhere (with Dr. John)
TTITLE8=Confessin' The Blues (with Marty Stuart)
TTITLE9=Hummingbird (with Dionne Warwick)
TTITLE10=Bring It Home To Me (with Paul Carrack)
TTITLE11=Paying The Cost To Be The Boss (with The Rolling Stones)
TTITLE12=Let The Good Times Roll (with Zucchero)
TTITLE13=Dangerous Mood (with Joe Cocker)
TTITLE14=Keep It Coming (with Heavy D)
TTITLE15=Cryin' Won't Help You Babe (with David Gilmour and Paul Carrack
TTITLE15=)
TTITLE16=Night Life (with Willie Nelson)
EXTD=CD 1997\nMCA  - MCD 11722 - 111 722-2
EXTT0=
EXTT1=
EXTT2=
EXTT3=
EXTT4=
EXTT5=
EXTT6=
EXTT7=
EXTT8=
EXTT9=
EXTT10=
EXTT11=
EXTT12=
EXTT13=
EXTT14=
EXTT15=
EXTT16=
PLAYORDER=
